<?xml version="1.0" encoding="UTF-8"?>
<svg version="1.1" xmlns="http://www.w3.org/2000/svg" width="80" height="70">
<path d="M0 0 C2.63066189 1.47886674 5.18031586 3.04277387 7.72460938 4.66552734 C9.03171875 5.46700195 9.03171875 5.46700195 10.36523438 6.28466797 C18.92303771 11.58763604 18.92303771 11.58763604 22.47460938 14.85302734 C22.47460938 15.51302734 22.47460938 16.17302734 22.47460938 16.85302734 C23.06886719 17.08248047 23.663125 17.31193359 24.27539062 17.54833984 C27.06426161 19.2028388 28.04880504 20.93273911 29.66210938 23.72802734 C30.17128906 24.59169922 30.68046875 25.45537109 31.20507812 26.34521484 C34.16426912 32.19075521 34.55358455 38.90761813 32.82617188 45.22412109 C28.57850812 55.6980612 21.70039278 60.74020577 11.77929688 65.50537109 C2.31374359 69.36543715 -10.58578652 69.37451727 -20.23242188 65.88427734 C-31.53240905 60.80217068 -40.71338703 53.48203602 -45.52539062 41.85302734 C-47.92441659 34.65594943 -46.78283979 27.90203566 -43.70507812 21.09912109 C-39.71260828 13.49756427 -33.76009543 10.13102009 -26.52539062 5.85302734 C-25.44386719 5.20462891 -24.36234375 4.55623047 -23.24804688 3.88818359 C-15.09540572 -0.94410917 -9.21223888 -4.18398088 0 0 Z " fill="#F6EADA" transform="translate(46.525390625,2.14697265625)"/>
<path d="M0 0 C2.63066189 1.47886674 5.18031586 3.04277387 7.72460938 4.66552734 C9.03171875 5.46700195 9.03171875 5.46700195 10.36523438 6.28466797 C18.92303771 11.58763604 18.92303771 11.58763604 22.47460938 14.85302734 C22.47460938 15.51302734 22.47460938 16.17302734 22.47460938 16.85302734 C23.06886719 17.08248047 23.663125 17.31193359 24.27539062 17.54833984 C27.06426161 19.2028388 28.04880504 20.93273911 29.66210938 23.72802734 C30.17128906 24.59169922 30.68046875 25.45537109 31.20507812 26.34521484 C34.16426912 32.19075521 34.55358455 38.90761813 32.82617188 45.22412109 C28.57850812 55.6980612 21.70039278 60.74020577 11.77929688 65.50537109 C2.31374359 69.36543715 -10.58578652 69.37451727 -20.23242188 65.88427734 C-31.53240905 60.80217068 -40.71338703 53.48203602 -45.52539062 41.85302734 C-47.92441659 34.65594943 -46.78283979 27.90203566 -43.70507812 21.09912109 C-39.71260828 13.49756427 -33.76009543 10.13102009 -26.52539062 5.85302734 C-25.44386719 5.20462891 -24.36234375 4.55623047 -23.24804688 3.88818359 C-15.09540572 -0.94410917 -9.21223888 -4.18398088 0 0 Z M-20.27539062 5.29052734 C-21.46865967 5.96897705 -21.46865967 5.96897705 -22.68603516 6.66113281 C-30.68370656 11.3344611 -39.27530245 16.79480036 -42.96679688 25.69677734 C-44.89943425 33.15702792 -44.04323417 39.800813 -40.26367188 46.49755859 C-35.0645879 53.54260946 -27.14062557 59.09948395 -18.52539062 60.85302734 C-5.17505943 62.34536044 5.62529901 60.66957509 16.91210938 53.04052734 C21.76887631 49.124759 25.30026308 44.03008886 26.47460938 37.85302734 C27.20086703 30.85237976 26.44007734 25.69664867 22.47460938 19.85302734 C17.6901369 14.15250143 12.12959473 10.53738131 5.66210938 6.97802734 C4.80423828 6.49333984 3.94636719 6.00865234 3.0625 5.50927734 C-6.26940703 0.25227858 -10.80507055 -0.15654499 -20.27539062 5.29052734 Z " fill="#050404" transform="translate(46.525390625,2.14697265625)"/>
<path d="M0 0 C3.625 0.375 3.625 0.375 7 1 C8.33359073 7.42548263 8.33359073 7.42548263 6.875 9.9375 C4.33639987 11.37604008 2.87213496 11.50262362 0 11 C-1.875 9.3125 -1.875 9.3125 -3 7 C-2.75925978 3.62963689 -2.41201979 2.41201979 0 0 Z " fill="#312F2F" transform="translate(23,28)"/>
<path d="M0 0 C1.875 1.125 1.875 1.125 3 3 C2.77669287 6.64734979 2.61627165 8.38372835 0 11 C-3 10.8125 -3 10.8125 -6 10 C-8 7 -8 7 -7.75 3.875 C-7.37875 2.451875 -7.37875 2.451875 -7 1 C-4.45132831 -0.27433584 -2.82594567 -0.27570202 0 0 Z " fill="#2C2B2B" transform="translate(53,28)"/>
<path d="M0 0 C4.95 0 9.9 0 15 0 C12.39449541 6.51376147 12.39449541 6.51376147 10 8 C6.1560133 7.93135738 3.87848566 7.85014741 1.0625 5.125 C0 3 0 3 0 0 Z " fill="#4A1115" transform="translate(31,42)"/>
<path d="M0 0 C5.75 1.75 5.75 1.75 8 4 C8 4.99 8 5.98 8 7 C8.33 7.33 8.66 7.66 9 8 C9.04080783 9.99958364 9.04254356 12.00045254 9 14 C7.63137648 11.94706472 6.27787536 9.8839892 4.9375 7.8125 C4.298125 6.884375 3.65875 5.95625 3 5 C2.67 5 2.34 5 2 5 C2.20625 6.0725 2.4125 7.145 2.625 8.25 C2.9876191 11.87619096 2.98362069 13.08291076 1 16 C0 14 0 14 0.0625 10.6875 C0.00289778 7.17096881 -0.48701775 5.12052589 -2 2 C-1.34 2 -0.68 2 0 2 C0 1.34 0 0.68 0 0 Z " fill="#DACEBA" transform="translate(39,3)"/>
<path d="M0 0 C1.69141656 0.08963062 3.37959602 0.24577676 5.0625 0.4375 C6.44115234 0.59025391 6.44115234 0.59025391 7.84765625 0.74609375 C8.55792969 0.82988281 9.26820312 0.91367187 10 1 C9.6875 2.875 9.6875 2.875 9 5 C5.75366476 7.1642235 4.75698557 7.37569856 1 7 C0.01 6.34 -0.98 5.68 -2 5 C-1.125 1.125 -1.125 1.125 0 0 Z " fill="#FDBFD1" transform="translate(19,37)"/>
<path d="M0 0 C2 1.8125 2 1.8125 4 4 C4 4.99 4 5.98 4 7 C0.78548731 8.60725635 -2.43612536 8.05748185 -6 8 C-6.33 6.35 -6.66 4.7 -7 3 C-6.21625 3.061875 -5.4325 3.12375 -4.625 3.1875 C-3.75875 3.125625 -2.8925 3.06375 -2 3 C-1.34 2.01 -0.68 1.02 0 0 Z " fill="#F8B9CC" transform="translate(55,35)"/>
<path d="M0 0 C0.99 0.33 1.98 0.66 3 1 C2.34 1 1.68 1 1 1 C0.75507813 1.57234375 0.51015625 2.1446875 0.2578125 2.734375 C-1.21110099 5.38024402 -2.95348244 7.14853139 -5.125 9.25 C-5.84945313 9.95640625 -6.57390625 10.6628125 -7.3203125 11.390625 C-7.87460938 11.92171875 -8.42890625 12.4528125 -9 13 C-9.33 12.01 -9.66 11.02 -10 10 C-8.671875 8.02734375 -8.671875 8.02734375 -6.75 5.9375 C-6.12609375 5.24527344 -5.5021875 4.55304687 -4.859375 3.83984375 C-3 2 -3 2 0 0 Z " fill="#F6F2EB" transform="translate(16,14)"/>
<path d="M0 0 C1.65 0 3.3 0 5 0 C5 0.99 5 1.98 5 3 C3.35 3.33 1.7 3.66 0 4 C0 2.68 0 1.36 0 0 Z " fill="#E5575A" transform="translate(36,45)"/>
<path d="M0 0 C0.33 0.66 0.66 1.32 1 2 C-0.68474722 5.36949443 -1.8191658 6.87944386 -5 9 C-7.1875 8.625 -7.1875 8.625 -9 8 C-8.071875 7.4225 -7.14375 6.845 -6.1875 6.25 C-3.40184158 4.28365288 -1.81261304 2.81962028 0 0 Z " fill="#D4C6B1" transform="translate(32,7)"/>
<path d="M0 0 C3 1 3 1 5 4 C5.125 7.1875 5.125 7.1875 5 10 C0 2.5 0 2.5 0 0 Z " fill="#D3C5AF" transform="translate(43,7)"/>
</svg>
